<?xml version="1.0" encoding="UTF-8"?><svg id="Layer_1" xmlns="http://www.w3.org/2000/svg" viewBox="0 0 434.2 138.4"><defs><style>.cls-1{fill:#fff;}.cls-2{fill:#00b0f0;}</style></defs><g id="Layer_2"><g id="Layer_1-2"><path class="cls-1" d="M208.1,37.1h-24.5V6.9h0c0-3.9-3.1-7-7-7s-7,3.1-7,7h0V106.5c0,3.9,3.1,7,7,7s7-3.1,7-7V50.5h24.5c14.5,0,20.9,6.3,20.9,17v39.1h0c0,3.9,3.1,7,7,7s7-3.1,7-7v-39.1c.1-19.1-11.4-30.4-34.9-30.4Z"/><path class="cls-1" d="M310.1,37.9h-19.9c-19.2,0-31.1,11.1-31.1,34.3s12,34.5,31.1,34.5h31.7v3.3c0,10.3-3.5,14.6-14.3,14.6h-41.1c-3.8-.1-7.1,2.8-7.2,6.7-.1,3.8,2.8,7.1,6.7,7.2h43.3c20.1,0,27.2-8,27.2-28.4v-41.5c-.1-20.7-9.3-30.7-26.4-30.7Zm11.8,55.7h-30.3c-12.4,0-18-6.3-18-20.9s5.6-20.9,18-20.9h14.3c11.5,0,16,5,16,16.7v25.1Z"/><path class="cls-1" d="M384.9,52.5h41.9c4,0,7.3-3.3,7.3-7.3s-3.3-7.3-7.3-7.3h-42c-17.6,0-24.7,8.5-24.7,22.1,0,11.6,5.2,22.1,26.1,22.1h17.9c7.6,0,10.8,2.4,10.8,8.5s-2.9,8.3-9.9,8.3h-44.2c-4.1-.2-7.5,3-7.7,7.1s3,7.5,7.1,7.7h44.8c17.8,0,24.8-9.5,24.8-23,0-11.8-5.3-21.4-26.2-21.4h-17.8c-8.5,0-10.8-2.9-10.8-8.2,0-5.8,2.9-8.6,9.9-8.6Z"/><path class="cls-2" d="M66,22.6L2.1,71.7c-2,1.5-2.4,4.4-.8,6.4s4.4,2.4,6.4,.8L71.7,29.8c2-1.5,2.4-4.4,.8-6.4h0c-1.6-1.9-4.4-2.3-6.5-.8h0Z"/><path class="cls-2" d="M77.7,41.2c-1.5-2-4.4-2.4-6.4-.8L2.1,93.5c-2,1.5-2.4,4.4-.8,6.4,1.5,2,4.4,2.4,6.4,.8L76.9,47.6c1.9-1.5,2.3-4.4,.8-6.4Z"/><path class="cls-2" d="M.9,56.4c1.5,2,4.4,2.4,6.4,.8h0L68.5,10.3l34.9,26.7-25.9,19.9c-2.1,1.4-2.7,4.2-1.3,6.3,1.4,2.1,4.2,2.7,6.3,1.3,.2-.1,.4-.3,.5-.4l30.6-23.5h0l.3-.3h0c.2-.2,.3-.3,.5-.5,1.5-2,1.1-4.9-.8-6.4L71.3,.9c-.6-.5-1.4-.8-2.2-.9h-1.1c-.8,.1-1.5,.4-2.2,.9L1.8,50c-2,1.5-2.4,4.4-.9,6.4H.9Z"/><path class="cls-2" d="M130.3,59.4l-64,49.1c-2,1.5-2.4,4.4-.8,6.4h0c1.5,2,4.4,2.4,6.4,.8l64-49.1c2-1.5,2.4-4.4,.8-6.4-1.6-1.9-4.4-2.3-6.4-.8h0Z"/><path class="cls-2" d="M60.2,97.1c1.5,2,4.4,2.4,6.4,.8l69.3-53.1c2-1.5,2.4-4.4,.8-6.4-1.5-2-4.4-2.4-6.4-.8L61.1,90.7c-2,1.5-2.4,4.4-.9,6.4Z"/><path class="cls-2" d="M137,82h0c-1.5-2-4.4-2.4-6.4-.8l-61.2,46.9-34.9-26.8,25.9-19.9c2-1.5,2.4-4.4,.8-6.4-1.5-2-4.4-2.4-6.4-.8l-30.6,23.5h0c-.1,.1-.2,.2-.3,.3h0c-.2,.2-.3,.3-.5,.5-1.5,2-1.1,4.8,.8,6.4l42.4,32.5c.6,.5,1.4,.8,2.2,.9h1.2c.8-.1,1.5-.4,2.2-.9l64-49.1c1.9-1.5,2.3-4.3,.8-6.3Z"/></g></g></svg>